# xmcd CD database file
#
# Track frame offsets:
#	150
#	9835
#	23115
#	33387
#	50608
#	60906
#	71391
#	79453
#	102417
#	122282
#	138457
#	166223
#
# Disc length: 2351 seconds
#
# Revision: 0
# Processed by: cddbd v1.5.2PL0 Copyright (c) Steve Scherf et al.
# Submitted via: CDex 1.51
#
DISCID=90092d0c
DTITLE=The Snowdroppers - Too Late To Pray
DYEAR=2009
DGENRE=Blues
TTITLE0=Do The Stomp
TTITLE1=Fucked Up Blues
TTITLE2=Rosemary
TTITLE3=Good Drugs Bad Women
TTITLE4=Bottom Of The Trough
TTITLE5=Baby No More
TTITLE6=Roll In My Sweet Baby's Arms
TTITLE7=Poor Man's Soul
TTITLE8=Shallow Grave Blues
TTITLE9=Swear It On The Bible
TTITLE10=Run You Down
TTITLE11=Great Western Highway
EXTD=YEAR: 2009
EXTT0=
EXTT1=
EXTT2=
EXTT3=
EXTT4=
EXTT5=
EXTT6=
EXTT7=
EXTT8=
EXTT9=
EXTT10=
EXTT11=
PLAYORDER=
